<mxfile host="app.diagrams.net" modified="2023-09-11T06:29:13.362Z" agent="Mozilla/5.0 (Windows NT 10.0; Win64; x64) AppleWebKit/537.36 (KHTML, like Gecko) Chrome/116.0.0.0 Safari/537.36" etag="mZAfvltafzM8ODSwb7BE" version="21.7.4" type="github">
  <diagram name="Halaman-1" id="bpRa3LiGtHMKyKpqk1Nt">
    <mxGraphModel dx="1434" dy="782" grid="1" gridSize="10" guides="1" tooltips="1" connect="1" arrows="1" fold="1" page="1" pageScale="1" pageWidth="827" pageHeight="1169" math="0" shadow="0">
      <root>
        <mxCell id="0" />
        <mxCell id="1" parent="0" />
        <mxCell id="7NRmrMS-ohi9uF83jWdv-6" value="user" style="shape=umlActor;verticalLabelPosition=bottom;verticalAlign=top;html=1;outlineConnect=0;" vertex="1" parent="1">
          <mxGeometry x="600" y="265.36" width="90" height="154.29" as="geometry" />
        </mxCell>
        <mxCell id="7NRmrMS-ohi9uF83jWdv-9" style="edgeStyle=orthogonalEdgeStyle;rounded=0;orthogonalLoop=1;jettySize=auto;html=1;exitX=0;exitY=0.5;exitDx=0;exitDy=0;" edge="1" parent="1" source="7NRmrMS-ohi9uF83jWdv-8">
          <mxGeometry relative="1" as="geometry">
            <mxPoint x="340" y="345" as="targetPoint" />
          </mxGeometry>
        </mxCell>
        <mxCell id="7NRmrMS-ohi9uF83jWdv-8" value="game tebak angka" style="rounded=0;whiteSpace=wrap;html=1;verticalAlign=top;" vertex="1" parent="1">
          <mxGeometry x="330" y="190" width="180" height="285" as="geometry" />
        </mxCell>
        <mxCell id="7NRmrMS-ohi9uF83jWdv-11" value="random angka" style="ellipse;whiteSpace=wrap;html=1;" vertex="1" parent="1">
          <mxGeometry x="362.5" y="230" width="115" height="70" as="geometry" />
        </mxCell>
        <mxCell id="7NRmrMS-ohi9uF83jWdv-12" value="tebak angka" style="ellipse;whiteSpace=wrap;html=1;" vertex="1" parent="1">
          <mxGeometry x="361.75" y="360" width="116.5" height="70" as="geometry" />
        </mxCell>
        <mxCell id="7NRmrMS-ohi9uF83jWdv-20" value="computer" style="shape=umlActor;verticalLabelPosition=bottom;verticalAlign=top;html=1;outlineConnect=0;" vertex="1" parent="1">
          <mxGeometry x="150" y="265.36" width="90" height="154.29" as="geometry" />
        </mxCell>
        <mxCell id="7NRmrMS-ohi9uF83jWdv-21" value="" style="endArrow=none;html=1;rounded=0;" edge="1" parent="1" source="7NRmrMS-ohi9uF83jWdv-20" target="7NRmrMS-ohi9uF83jWdv-11">
          <mxGeometry width="50" height="50" relative="1" as="geometry">
            <mxPoint x="390" y="430" as="sourcePoint" />
            <mxPoint x="440" y="380" as="targetPoint" />
            <Array as="points">
              <mxPoint x="240" y="340" />
            </Array>
          </mxGeometry>
        </mxCell>
        <mxCell id="7NRmrMS-ohi9uF83jWdv-22" value="" style="endArrow=none;html=1;rounded=0;" edge="1" parent="1" source="7NRmrMS-ohi9uF83jWdv-12" target="7NRmrMS-ohi9uF83jWdv-6">
          <mxGeometry width="50" height="50" relative="1" as="geometry">
            <mxPoint x="390" y="430" as="sourcePoint" />
            <mxPoint x="440" y="380" as="targetPoint" />
          </mxGeometry>
        </mxCell>
      </root>
    </mxGraphModel>
  </diagram>
</mxfile>
